<svg width="32" height="32" viewBox="0 0 32 32" fill="none" xmlns="http://www.w3.org/2000/svg">
  <!-- Shield shape -->
  <path d="M16 2L26 8V16C26 22 22 28 16 30C10 28 6 22 6 16V8L16 2Z" 
        fill="#1f2937" 
        stroke="#374151" 
        stroke-width="1"/>
  <!-- Letter S - simple geometric style -->
  <path d="M20 10H12C11 10 10 11 10 12C10 13 11 14 12 14H20C21 14 22 15 22 16C22 17 21 18 20 18H12M20 18H12C11 18 10 19 10 20C10 21 11 22 12 22H20" 
        stroke="white" 
        stroke-width="2" 
        stroke-linecap="round"
        stroke-linejoin="round"
        fill="none"/>
</svg>
